<svg width="70" height="70" viewBox="0 0 70 70" fill="none" xmlns="http://www.w3.org/2000/svg">
<circle cx="35" cy="35" r="35" fill="#00ACFF"/>
<path d="M22.5 35C22.5 33.9187 22.6375 32.8712 22.895 31.87C23.5856 31.9063 24.2728 31.7509 24.8806 31.4211C25.4883 31.0912 25.9931 30.5997 26.339 30.0009C26.6849 29.4021 26.8585 28.7193 26.8406 28.028C26.8227 27.3367 26.614 26.6638 26.2375 26.0837C27.7487 24.597 29.6135 23.5194 31.6562 22.9525C31.97 23.5693 32.4483 24.0873 33.0382 24.4491C33.6282 24.8109 34.3067 25.0024 34.9987 25.0024C35.6908 25.0024 36.3693 24.8109 36.9593 24.4491C37.5492 24.0873 38.0275 23.5693 38.3413 22.9525C40.384 23.5194 42.2488 24.597 43.76 26.0837C43.3831 26.6639 43.1741 27.3371 43.156 28.0287C43.138 28.7203 43.3116 29.4035 43.6577 30.0025C44.0038 30.6016 44.5089 31.0932 45.1171 31.423C45.7253 31.7528 46.4129 31.908 47.1038 31.8712C47.3613 32.8712 47.4988 33.9187 47.4988 35C47.4988 36.0813 47.3613 37.1287 47.1038 38.13C46.4131 38.0935 45.7257 38.2486 45.1177 38.5784C44.5098 38.9081 44.0048 39.3996 43.6588 39.9985C43.3127 40.5973 43.139 41.2802 43.1569 41.9716C43.1747 42.6631 43.3835 43.3361 43.76 43.9162C42.2488 45.403 40.384 46.4806 38.3413 47.0475C38.0275 46.4307 37.5492 45.9127 36.9593 45.5509C36.3693 45.1891 35.6908 44.9976 34.9987 44.9976C34.3067 44.9976 33.6282 45.1891 33.0382 45.5509C32.4483 45.9127 31.97 46.4307 31.6562 47.0475C29.6135 46.4806 27.7487 45.403 26.2375 43.9162C26.6144 43.3361 26.8234 42.6629 26.8415 41.9713C26.8595 41.2797 26.6859 40.5965 26.3398 39.9975C25.9937 39.3984 25.4886 38.9068 24.8804 38.577C24.2722 38.2472 23.5846 38.092 22.8938 38.1288C22.6375 37.13 22.5 36.0825 22.5 35ZM28.505 38.75C29.2925 40.1137 29.5175 41.6825 29.21 43.155C29.72 43.5175 30.2625 43.8313 30.8312 44.0925C31.9771 43.066 33.4616 42.4989 35 42.5C36.575 42.5 38.0475 43.0888 39.1688 44.0925C39.7375 43.8313 40.28 43.5175 40.79 43.155C40.4743 41.65 40.7253 40.0813 41.495 38.75C42.2633 37.418 43.4963 36.4164 44.9575 35.9375C45.0153 35.3138 45.0153 34.6862 44.9575 34.0625C43.4958 33.5838 42.2623 32.5823 41.4937 31.25C40.7241 29.9187 40.473 28.35 40.7888 26.845C40.2789 26.4824 39.7361 26.1685 39.1675 25.9075C38.022 26.9337 36.5379 27.5008 35 27.5C33.4616 27.5011 31.9771 26.934 30.8312 25.9075C30.2627 26.1685 29.7199 26.4824 29.21 26.845C29.5257 28.35 29.2747 29.9187 28.505 31.25C27.7367 32.582 26.5037 33.5836 25.0425 34.0625C24.9847 34.6862 24.9847 35.3138 25.0425 35.9375C26.5042 36.4162 27.7377 37.4177 28.5062 38.75H28.505ZM35 38.75C34.0054 38.75 33.0516 38.3549 32.3483 37.6517C31.6451 36.9484 31.25 35.9946 31.25 35C31.25 34.0054 31.6451 33.0516 32.3483 32.3483C33.0516 31.6451 34.0054 31.25 35 31.25C35.9946 31.25 36.9484 31.6451 37.6517 32.3483C38.3549 33.0516 38.75 34.0054 38.75 35C38.75 35.9946 38.3549 36.9484 37.6517 37.6517C36.9484 38.3549 35.9946 38.75 35 38.75ZM35 36.25C35.3315 36.25 35.6495 36.1183 35.8839 35.8839C36.1183 35.6495 36.25 35.3315 36.25 35C36.25 34.6685 36.1183 34.3505 35.8839 34.1161C35.6495 33.8817 35.3315 33.75 35 33.75C34.6685 33.75 34.3505 33.8817 34.1161 34.1161C33.8817 34.3505 33.75 34.6685 33.75 35C33.75 35.3315 33.8817 35.6495 34.1161 35.8839C34.3505 36.1183 34.6685 36.25 35 36.25V36.25Z" fill="white"/>
</svg>
