<svg width="40" height="40" viewBox="0 0 40 40" fill="none" xmlns="http://www.w3.org/2000/svg">
<rect width="40" height="40" fill="white"/>
<path d="M21.3099 28.4C19.9876 28.6065 18.6352 28.4979 17.3628 28.083C16.0904 27.6681 14.934 26.9586 13.9877 26.0122C13.0413 25.0659 12.3318 23.9094 11.9169 22.6371C11.502 21.3647 11.3934 20.0123 11.5999 18.69C11.0786 17.6985 10.8882 16.5663 11.0563 15.4588C11.2245 14.3513 11.7424 13.3267 12.5345 12.5346C13.3266 11.7425 14.3513 11.2245 15.4587 11.0564C16.5662 10.8882 17.6984 11.0787 18.6899 11.6C20.0122 11.3934 21.3646 11.502 22.637 11.9169C23.9094 12.3319 25.0658 13.0414 26.0122 13.9877C26.9585 14.9341 27.668 16.0905 28.0829 17.3629C28.4979 18.6353 28.6065 19.9877 28.3999 21.31C28.9212 22.3015 29.1117 23.4337 28.9435 24.5412C28.7754 25.6486 28.2574 26.6733 27.4653 27.4654C26.6732 28.2574 25.6486 28.7754 24.5411 28.9436C23.4336 29.1117 22.3014 28.9212 21.3099 28.4V28.4ZM20.0519 25.156H20.0119C22.8839 25.156 24.3149 23.77 24.3149 21.913C24.3149 20.715 23.7639 19.442 21.5889 18.955L19.6059 18.515C18.8509 18.343 17.9839 18.115 17.9839 17.4C17.9839 16.685 18.6039 16.187 19.7079 16.187C21.9379 16.187 21.7349 17.715 22.8389 17.715C23.4149 17.715 23.9319 17.373 23.9319 16.785C23.9319 15.415 21.7349 14.385 19.8759 14.385C17.8549 14.385 15.7029 15.244 15.7029 17.529C15.7029 18.627 16.0969 19.799 18.2629 20.342L20.9519 21.013C21.7679 21.215 21.9699 21.672 21.9699 22.085C21.9699 22.772 21.2859 23.443 20.0519 23.443C17.6349 23.443 17.9739 21.586 16.6779 21.586C16.0979 21.586 15.6749 21.984 15.6749 22.557C15.6749 23.671 17.0269 25.155 20.0519 25.155V25.156Z" fill="#FF5300"/>
</svg>
