<svg width="40" height="40" viewBox="0 0 40 40" fill="none" xmlns="http://www.w3.org/2000/svg">
<rect width="40" height="40" fill="white"/>
<path d="M30.1621 13.656C29.3986 13.9937 28.589 14.2155 27.7601 14.314C28.6338 13.7914 29.2878 12.969 29.6001 12C28.7801 12.488 27.8811 12.83 26.9441 13.015C26.3147 12.3416 25.4804 11.895 24.571 11.7446C23.6616 11.5942 22.728 11.7485 21.9153 12.1834C21.1026 12.6184 20.4564 13.3097 20.0772 14.1498C19.6979 14.9899 19.6068 15.9318 19.8181 16.829C18.1552 16.7456 16.5284 16.3135 15.0433 15.5607C13.5583 14.8078 12.2482 13.751 11.1981 12.459C10.8263 13.0974 10.631 13.8232 10.6321 14.562C10.6321 16.012 11.3701 17.293 12.4921 18.043C11.8281 18.0221 11.1787 17.8428 10.5981 17.52V17.572C10.5983 18.5377 10.9324 19.4736 11.5439 20.221C12.1554 20.9685 13.0065 21.4815 13.9531 21.673C13.3367 21.84 12.6904 21.8646 12.0631 21.745C12.3299 22.5762 12.8501 23.3032 13.5506 23.8241C14.2512 24.345 15.0972 24.6338 15.9701 24.65C15.1025 25.3313 14.1092 25.835 13.0469 26.1322C11.9846 26.4293 10.8742 26.5142 9.77905 26.382C11.6908 27.6114 13.9161 28.2641 16.1891 28.262C23.8821 28.262 28.0891 21.889 28.0891 16.362C28.0891 16.182 28.0841 16 28.0761 15.822C28.8949 15.2302 29.6017 14.497 30.1631 13.657L30.1621 13.656Z" fill="#FF5300"/>
</svg>
