<svg width="75" height="75" viewBox="0 0 75 75" fill="none" xmlns="http://www.w3.org/2000/svg">
<circle cx="37.5" cy="37.5" r="37.5" fill="#FF5300"/>
<path d="M41.5749 27.5C43.04 27.7858 44.3865 28.5024 45.442 29.5579C46.4975 30.6134 47.2141 31.9599 47.4999 33.425L41.5749 27.5ZM41.5749 21.5C44.6188 21.8382 47.4573 23.2013 49.6243 25.3655C51.7912 27.5298 53.1579 30.3665 53.4999 33.41L41.5749 21.5ZM51.9999 45.38V49.88C52.0016 50.2978 51.916 50.7113 51.7487 51.094C51.5813 51.4768 51.3358 51.8204 51.028 52.1028C50.7202 52.3852 50.3568 52.6002 49.961 52.7341C49.5653 52.8679 49.146 52.9176 48.7299 52.88C44.1142 52.3785 39.6804 50.8012 35.7849 48.275C32.1606 45.972 29.0879 42.8993 26.7849 39.275C24.2499 35.3618 22.6723 30.9065 22.1799 26.27C22.1424 25.8552 22.1917 25.4371 22.3247 25.0424C22.4576 24.6477 22.6713 24.285 22.952 23.9774C23.2328 23.6698 23.5746 23.4241 23.9556 23.2558C24.3366 23.0875 24.7484 23.0004 25.1649 23H29.6649C30.3929 22.9928 31.0986 23.2506 31.6505 23.7253C32.2025 24.2 32.563 24.8592 32.6649 25.58C32.8548 27.0201 33.2071 28.4341 33.7149 29.795C33.9167 30.3319 33.9604 30.9154 33.8408 31.4763C33.7211 32.0373 33.4432 32.5522 33.0399 32.96L31.1349 34.865C33.2702 38.6203 36.3796 41.7297 40.1349 43.865L42.0399 41.96C42.4477 41.5567 42.9626 41.2788 43.5236 41.1591C44.0845 41.0395 44.668 41.0832 45.2049 41.285C46.5658 41.7928 47.9798 42.1451 49.4199 42.335C50.1485 42.4378 50.814 42.8048 51.2897 43.3662C51.7654 43.9277 52.0182 44.6444 51.9999 45.38Z" stroke="white" stroke-width="2" stroke-linecap="round" stroke-linejoin="round"/>
</svg>
